<svg xmlns="http://www.w3.org/2000/svg" xmlns:xlink="http://www.w3.org/1999/xlink" version="1.1" x="0px" y="0px" viewBox="0 0 100 100" style="enable-background:new 0 0 100 100;" xml:space="preserve"><style type="text/css">
	.st0{fill:none;stroke:#000000;stroke-width:2;stroke-linecap:round;stroke-linejoin:round;stroke-miterlimit:10;}
</style><style>
        path {
            fill: black;
        }
        @media (prefers-color-scheme: dark) {
            path { fill: #adbac7; }
        }
    </style><path d="M76.194,69.52H65.75V62.9c5.123-3.547,8.988-8.783,10.788-14.897h2.367c1.689,0,3.064-1.375,3.064-3.064v-6.302  c0-1.542-1.149-2.809-2.634-3.021V19.377c2.098-0.46,3.676-2.328,3.676-4.562c0-2.578-2.098-4.676-4.676-4.676  s-4.676,2.098-4.676,4.676c0,2.234,1.578,4.102,3.676,4.562v16.196h-0.079C75.032,22.596,63.71,12.688,50.109,12.688  c-13.6,0-24.922,9.908-27.146,22.884h-1.735c-1.689,0-3.063,1.375-3.063,3.064v6.302c0,1.689,1.374,3.064,3.063,3.064h2.453  c1.817,6.175,5.739,11.456,10.937,15.004v6.513H24.056c-7.682,0-13.931,6.249-13.931,13.931v5.735c0,0.553,0.447,1,1,1h78  c0.553,0,1-0.447,1-1V83.45C90.125,75.769,83.876,69.52,76.194,69.52z M71.656,71.52v16.666H28.594V71.52H71.656z M24.568,40.518  c0.151-10.233,11.548-18.524,25.542-18.524s25.391,8.292,25.543,18.524c-0.006,0.517-0.029,1.029-0.065,1.538  c-0.937,9.707-12.002,17.396-25.478,17.396s-24.541-7.689-25.477-17.396C24.596,41.547,24.573,41.035,24.568,40.518z M79.969,38.637  v6.302c0,0.587-0.478,1.064-1.064,1.064h-1.857c0.265-1.24,0.442-2.51,0.534-3.805c0.046-0.488,0.077-0.978,0.077-1.475  c0-0.07-0.006-0.139-0.007-0.208c0.001-0.093,0.007-0.184,0.007-0.277c0-0.9-0.047-1.788-0.131-2.666h1.376  C79.491,37.572,79.969,38.05,79.969,38.637z M75.659,14.814c0-1.476,1.2-2.676,2.676-2.676s2.676,1.2,2.676,2.676  s-1.2,2.676-2.676,2.676S75.659,16.29,75.659,14.814z M50.109,14.688c10.284,0,19.162,6.111,23.21,14.889  c-4.9-5.757-13.47-9.583-23.21-9.583c-9.74,0-18.31,3.827-23.21,9.584C30.948,20.8,39.826,14.688,50.109,14.688z M21.229,46.003  c-0.586,0-1.063-0.478-1.063-1.064v-6.302c0-0.587,0.478-1.064,1.063-1.064h1.463c-0.085,0.878-0.131,1.766-0.131,2.666  c0,0.093,0.006,0.184,0.007,0.277c-0.001,0.07-0.007,0.139-0.007,0.208c0,0.496,0.032,0.987,0.077,1.475  c0.091,1.295,0.269,2.565,0.534,3.805H21.229z M28.079,53.155c5.031,5.035,13.033,8.297,22.03,8.297c8.997,0,17-3.262,22.031-8.297  c-4.445,7.551-12.653,12.633-22.031,12.633C40.732,65.788,32.523,60.706,28.079,53.155z M36.619,64.245  c3.99,2.251,8.591,3.543,13.49,3.543c4.961,0,9.616-1.325,13.641-3.629v5.36H36.619V64.245z M12.125,83.45  c0-6.578,5.353-11.931,11.931-11.931h2.538v16.666H12.125V83.45z M88.125,88.186H73.656V71.52h2.538  c6.578,0,11.931,5.353,11.931,11.931V88.186z"/><path d="M30.292,38.106c0.02-0.052,2.062-5.239,8.2-7.339c0.523-0.179,0.802-0.747,0.623-1.27c-0.18-0.523-0.751-0.8-1.27-0.623  c-7.063,2.416-9.332,8.278-9.426,8.526c-0.193,0.517,0.067,1.091,0.583,1.285c0.116,0.044,0.235,0.065,0.353,0.065  C29.759,38.752,30.14,38.506,30.292,38.106z"/><path d="M36.507,84.062c2.321,0,4.21-1.889,4.21-4.21s-1.889-4.21-4.21-4.21s-4.21,1.889-4.21,4.21S34.186,84.062,36.507,84.062z   M36.507,77.643c1.219,0,2.21,0.991,2.21,2.21s-0.991,2.21-2.21,2.21s-2.21-0.991-2.21-2.21S35.288,77.643,36.507,77.643z"/><path d="M46.79,84.062c2.321,0,4.21-1.889,4.21-4.21s-1.889-4.21-4.21-4.21s-4.21,1.889-4.21,4.21S44.469,84.062,46.79,84.062z   M46.79,77.643c1.219,0,2.21,0.991,2.21,2.21s-0.991,2.21-2.21,2.21s-2.21-0.991-2.21-2.21S45.571,77.643,46.79,77.643z"/></svg>
