<?xml version="1.0" encoding="iso-8859-1"?>
<!-- Uploaded to: SVG Repo, www.svgrepo.com, Generator: SVG Repo Mixer Tools -->
<svg fill="#000000" height="800px" width="800px" version="1.1" id="Layer_1" xmlns="http://www.w3.org/2000/svg" xmlns:xlink="http://www.w3.org/1999/xlink" 
	 viewBox="0 0 512.001 512.001" xml:space="preserve">
   <style>
        path {
            fill: black;
        }
        @media (prefers-color-scheme: dark) {
            path { fill: #adbac7; }
        }
    </style>
<g>
	<g>
		<path d="M435.747,277.787c-4.513,0-8.17,3.657-8.17,8.17s3.657,8.17,8.17,8.17c19.522,0,35.404,15.882,35.404,35.404v133.447
			h-59.915V211.603c18.624-3.795,32.681-20.3,32.681-40.029c0-19.897-14.301-36.508-33.237-40.116
			c-1.814-21.671-8.164-42.839-18.665-61.873c-1.438-2.606-4.179-4.223-7.154-4.223h-35.229
			c-21.472-25.415-53.077-41.999-88.522-43.46l-8.693-17.385c-2.017-4.035-6.923-5.67-10.962-3.654
			c-4.035,2.019-5.671,6.925-3.654,10.962l5.319,10.639c-4.522,0.475-8.97,1.202-13.334,2.156L219.735,4.517
			c-2.019-4.035-6.923-5.67-10.962-3.654c-4.035,2.019-5.671,6.925-3.654,10.962l8.719,17.437
			c-20.163,7.411-37.85,19.983-51.467,36.1h-35.229c-2.975,0-5.716,1.618-7.153,4.223c-10.499,19.031-16.849,40.194-18.665,61.86
			c-18.898,3.577-33.239,20.205-33.239,40.129c0,19.728,14.057,36.233,32.681,40.029v194.184c0,4.513,3.657,8.17,8.17,8.17
			c4.513,0,8.17-3.657,8.17-8.17V144.342c0-21.76,5.158-43.314,14.955-62.638h18.643c-10.952,18.343-17.258,39.766-17.258,62.638
			v32.681c0,4.513,3.657,8.17,8.17,8.17h228.765c4.513,0,8.17-3.657,8.17-8.17v-32.681c0-22.872-6.304-44.296-17.258-62.638h18.643
			c9.796,19.324,14.955,40.878,14.955,62.638V471.15c0,13.515-10.996,24.511-24.511,24.511c-8.904,0-17.125-4.847-21.449-12.65
			c-1.44-2.597-4.177-4.208-7.146-4.208c-2.97,0-5.705,1.611-7.146,4.208c-4.326,7.803-12.546,12.65-21.449,12.65
			s-17.125-4.847-21.449-12.65c-1.44-2.597-4.177-4.208-7.146-4.208c-2.97,0-5.705,1.611-7.146,4.208
			c-4.326,7.803-12.546,12.65-21.449,12.65c-8.903,0-17.125-4.847-21.45-12.65c-1.44-2.597-4.177-4.208-7.146-4.208
			s-5.705,1.611-7.146,4.208c-4.326,7.803-12.546,12.65-21.45,12.65c-8.903,0-17.125-4.847-21.449-12.65
			c-1.44-2.597-4.177-4.208-7.146-4.208c-2.97,0-5.705,1.611-7.146,4.208c-4.326,7.803-12.546,12.65-21.449,12.65
			c-13.515,0-24.511-10.996-24.511-24.511v-32.681c0-4.513-3.657-8.17-8.17-8.17c-4.513,0-8.17,3.657-8.17,8.17v24.511H40.852
			V329.533c0-19.522,15.882-35.404,35.404-35.404c4.513,0,8.17-3.657,8.17-8.17c0-4.513-3.657-8.17-8.17-8.17
			c-28.531,0-51.745,23.213-51.745,51.745V471.15c0,4.513,3.657,8.17,8.17,8.17h68.907c3.795,18.624,20.3,32.681,40.028,32.681
			c10.836,0,21.062-4.303,28.596-11.684c7.534,7.38,17.76,11.684,28.596,11.684s21.062-4.303,28.596-11.684
			c7.534,7.38,17.76,11.684,28.596,11.684c10.836,0,21.062-4.303,28.596-11.684c7.534,7.38,17.76,11.684,28.596,11.684
			s21.062-4.303,28.596-11.684c7.534,7.38,17.76,11.684,28.596,11.684c19.728,0,36.233-14.057,40.029-32.681h68.907
			c4.513,0,8.17-3.657,8.17-8.17V329.533C487.491,301.001,464.278,277.787,435.747,277.787z M411.236,148.47
			c9.509,3.373,16.34,12.455,16.34,23.105s-6.831,19.733-16.34,23.105V148.47z M100.769,194.68
			c-9.51-3.373-16.34-12.455-16.34-23.105s6.831-19.733,16.34-23.105V194.68z M362.215,144.341v24.511H149.79v-24.511
			c0-58.559,47.635-106.201,106.192-106.213C314.588,38.148,362.215,85.787,362.215,144.341z"/>
	</g>
</g>
<g>
	<g>
		<path d="M174.301,266.894c-4.513,0-8.17,3.657-8.17,8.17v10.894c0,4.513,3.657,8.17,8.17,8.17c4.513,0,8.17-3.657,8.17-8.17
			v-10.894C182.471,270.551,178.814,266.894,174.301,266.894z"/>
	</g>
</g>
<g>
	<g>
		<path d="M337.705,354.043c-4.513,0-8.17,3.657-8.17,8.17v10.894c0,4.513,3.657,8.17,8.17,8.17s8.17-3.657,8.17-8.17v-10.894
			C345.875,357.7,342.218,354.043,337.705,354.043z"/>
	</g>
</g>
<g>
	<g>
		<path d="M305.024,386.723c-4.513,0-8.17,3.657-8.17,8.17v10.894c0,4.513,3.657,8.17,8.17,8.17s8.17-3.657,8.17-8.17v-10.894
			C313.194,390.38,309.537,386.723,305.024,386.723z"/>
	</g>
</g>
<g>
	<g>
		<path d="M276.712,202.005c-4.25-1.515-8.923,0.709-10.434,4.961c-1.543,4.338-5.672,7.252-10.277,7.252
			c-4.605,0-8.734-2.914-10.277-7.252c-1.511-4.252-6.188-6.475-10.434-4.961c-4.252,1.511-6.473,6.183-4.962,10.435
			c3.853,10.837,14.17,18.118,25.674,18.118s21.82-7.281,25.672-18.118C283.186,208.188,280.965,203.516,276.712,202.005z"/>
	</g>
</g>
<g>
	<g>
		<path d="M225.501,130.724h-18.519c-4.513,0-8.17,3.657-8.17,8.17c0,4.513,3.657,8.17,8.17,8.17h10.814
			c1.121,3.173,4.148,5.447,7.705,5.447c4.513,0,8.17-3.657,8.17-8.17v-5.447C233.671,134.381,230.013,130.724,225.501,130.724z"/>
	</g>
</g>
<g>
	<g>
		<path d="M305.024,130.724h-18.519c-4.513,0-8.17,3.657-8.17,8.17v5.447c0,4.513,3.657,8.17,8.17,8.17
			c3.558,0,6.584-2.273,7.705-5.447h10.814c4.513,0,8.17-3.657,8.17-8.17C313.194,134.381,309.536,130.724,305.024,130.724z"/>
	</g>
</g>
</svg>
